HIERARCHY
ROOT Hips
{
	OFFSET 0.053599 88.859886 3.107447
	CHANNELS 6 Xposition Yposition Zposition Zrotation Yrotation Xrotation 
	JOINT Spine
	{
		OFFSET -0.000000 8.814246 -2.080107
		CHANNELS 3 Zrotation Yrotation Xrotation
		JOINT Spine1
		{
			OFFSET 0.000000 8.844141 0.000000
			CHANNELS 3 Zrotation Yrotation Xrotation
			JOINT Spine2
			{
				OFFSET -0.000000 11.682268 0.000000
				CHANNELS 3 Zrotation Yrotation Xrotation
				JOINT Spine3
				{
					OFFSET 0.000000 11.746700 0.000000
					CHANNELS 3 Zrotation Yrotation Xrotation
					JOINT Neck
					{
						OFFSET -0.000000 17.658264 -0.000000
						CHANNELS 3 Zrotation Yrotation Xrotation
						JOINT Neck1
						{
							OFFSET -0.000000 5.101515 -0.000000
							CHANNELS 3 Zrotation Yrotation Xrotation
							JOINT Head
							{
								OFFSET 0.000000 5.101515 0.000000
								CHANNELS 3 Zrotation Yrotation Xrotation
								JOINT HeadEnd
								{
									OFFSET 0.000000 11.655085 0.000000
									CHANNELS 3 Zrotation Yrotation Xrotation
									End Site
									{
										OFFSET 0.000000 0.000000 0.000000
									}
								}
							}
						}
					}
					JOINT RightShoulder
					{
						OFFSET -2.625389 11.175210 0.000000
						CHANNELS 3 Zrotation Yrotation Xrotation
						JOINT RightArm
						{
							OFFSET -0.000000 10.434715 -0.000000
							CHANNELS 3 Zrotation Yrotation Xrotation
							JOINT RightForeArm
							{
								OFFSET -0.000000 29.628420 0.000000
								CHANNELS 3 Zrotation Yrotation Xrotation
								JOINT RightHand
								{
									OFFSET -0.000000 22.857611 0.000000
									CHANNELS 3 Zrotation Yrotation Xrotation
									JOINT RightHandThumb1
									{
										OFFSET -2.867323 3.959563 2.944291
										CHANNELS 3 Zrotation Yrotation Xrotation
										JOINT RightHandThumb2
										{
											OFFSET 0.000000 3.350399 0.000000
											CHANNELS 3 Zrotation Yrotation Xrotation
											JOINT RightHandThumb3
											{
												OFFSET 0.000000 3.756509 -0.000000
												CHANNELS 3 Zrotation Yrotation Xrotation
												JOINT RightHandThumb4
												{
													OFFSET 0.000000 3.147345 0.000000
													CHANNELS 3 Zrotation Yrotation Xrotation
													End Site
													{
														OFFSET 0.000000 0.000000 0.000000
													}
												}
											}
										}
									}
									JOINT RightHandIndex1
									{
										OFFSET -0.086752 10.030893 2.345280
										CHANNELS 3 Zrotation Yrotation Xrotation
										JOINT RightHandIndex2
										{
											OFFSET -0.000000 4.061090 0.000000
											CHANNELS 3 Zrotation Yrotation Xrotation
											JOINT RightHandIndex3
											{
												OFFSET -0.000000 3.248873 0.000000
												CHANNELS 3 Zrotation Yrotation Xrotation
												JOINT RightHandIndex4
												{
													OFFSET 0.000000 2.639709 -0.000000
													CHANNELS 3 Zrotation Yrotation Xrotation
													End Site
													{
														OFFSET 0.000000 0.000000 0.000000
													}
												}
											}
										}
									}
									JOINT RightHandMiddle1
									{
										OFFSET 0.104102 9.502952 0.006768
										CHANNELS 3 Zrotation Yrotation Xrotation
										JOINT RightHandMiddle2
										{
											OFFSET 0.000000 4.568727 0.000000
											CHANNELS 3 Zrotation Yrotation Xrotation
											JOINT RightHandMiddle3
											{
												OFFSET 0.000000 3.654981 -0.000000
												CHANNELS 3 Zrotation Yrotation Xrotation
												JOINT RightHandMiddle4
												{
													OFFSET -0.000000 2.741236 -0.000000
													CHANNELS 3 Zrotation Yrotation Xrotation
													End Site
													{
														OFFSET 0.000000 0.000000 0.000000
													}
												}
											}
										}
									}
									JOINT RightHandRing1
									{
										OFFSET 0.086752 8.921708 -2.267442
										CHANNELS 3 Zrotation Yrotation Xrotation
										JOINT RightHandRing2
										{
											OFFSET -0.000000 4.061090 0.000000
											CHANNELS 3 Zrotation Yrotation Xrotation
											JOINT RightHandRing3
											{
												OFFSET 0.000000 3.654981 -0.000000
												CHANNELS 3 Zrotation Yrotation Xrotation
												JOINT RightHandRing4
												{
													OFFSET 0.000000 2.741236 -0.000000
													CHANNELS 3 Zrotation Yrotation Xrotation
													End Site
													{
														OFFSET 0.000000 0.000000 0.000000
													}
												}
											}
										}
									}
									JOINT RightHandPinky1
									{
										OFFSET -0.173504 7.976997 -4.467199
										CHANNELS 3 Zrotation Yrotation Xrotation
										JOINT RightHandPinky2
										{
											OFFSET 0.000000 3.350399 -0.000000
											CHANNELS 3 Zrotation Yrotation Xrotation
											JOINT RightHandPinky3
											{
												OFFSET -0.000000 2.842763 0.000000
												CHANNELS 3 Zrotation Yrotation Xrotation
												JOINT RightHandPinky4
												{
													OFFSET -0.000000 2.639709 0.000000
													CHANNELS 3 Zrotation Yrotation Xrotation
													End Site
													{
														OFFSET 0.000000 0.000000 0.000000
													}
												}
											}
										}
									}
									JOINT RightForeArmEnd
									{
										OFFSET 0.000000 0.000000 0.000000
										CHANNELS 3 Zrotation Yrotation Xrotation
										End Site
										{
											OFFSET 0.000000 0.000000 0.000000
										}
									}
								}
								JOINT RightArmEnd
								{
									OFFSET 0.000000 0.000000 0.000000
									CHANNELS 3 Zrotation Yrotation Xrotation
									End Site
									{
										OFFSET 0.000000 0.000000 0.000000
									}
								}
							}
						}
					}
					JOINT LeftShoulder
					{
						OFFSET 2.625389 11.175210 0.000000
						CHANNELS 3 Zrotation Yrotation Xrotation
						JOINT LeftArm
						{
							OFFSET 0.000000 10.813635 -0.000000
							CHANNELS 3 Zrotation Yrotation Xrotation
							JOINT LeftForeArm
							{
								OFFSET 0.000000 28.724781 0.000000
								CHANNELS 3 Zrotation Yrotation Xrotation
								JOINT LeftHand
								{
									OFFSET 0.644384 25.716167 -0.328871
									CHANNELS 3 Zrotation Yrotation Xrotation
									JOINT LeftHandThumb1
									{
										OFFSET 2.867323 3.959563 2.944291
										CHANNELS 3 Zrotation Yrotation Xrotation
										JOINT LeftHandThumb2
										{
											OFFSET 0.000000 3.350399 0.000000
											CHANNELS 3 Zrotation Yrotation Xrotation
											JOINT LeftHandThumb3
											{
												OFFSET -0.000000 3.756509 0.000000
												CHANNELS 3 Zrotation Yrotation Xrotation
												JOINT LeftHandThumb4
												{
													OFFSET -0.000000 3.100000 0.000000
													CHANNELS 3 Zrotation Yrotation Xrotation
													End Site
													{
														OFFSET 0.000000 0.000000 0.000000
													}
												}
											}
										}
									}
									JOINT LeftHandIndex1
									{
										OFFSET 0.086752 10.030893 2.345280
										CHANNELS 3 Zrotation Yrotation Xrotation
										JOINT LeftHandIndex2
										{
											OFFSET -0.000000 4.061090 -0.000000
											CHANNELS 3 Zrotation Yrotation Xrotation
											JOINT LeftHandIndex3
											{
												OFFSET 0.000000 3.248873 -0.000000
												CHANNELS 3 Zrotation Yrotation Xrotation
												JOINT LeftHandIndex4
												{
													OFFSET 0.000000 2.639709 -0.000000
													CHANNELS 3 Zrotation Yrotation Xrotation
													End Site
													{
														OFFSET 0.000000 0.000000 0.000000
													}
												}
											}
										}
									}
									JOINT LeftHandMiddle1
									{
										OFFSET -0.104102 9.502952 0.006768
										CHANNELS 3 Zrotation Yrotation Xrotation
										JOINT LeftHandMiddle2
										{
											OFFSET -0.000000 4.568727 -0.000000
											CHANNELS 3 Zrotation Yrotation Xrotation
											JOINT LeftHandMiddle3
											{
												OFFSET 0.000000 3.654981 0.000000
												CHANNELS 3 Zrotation Yrotation Xrotation
												JOINT LeftHandMiddle4
												{
													OFFSET 0.000000 2.741236 -0.000000
													CHANNELS 3 Zrotation Yrotation Xrotation
													End Site
													{
														OFFSET 0.000000 0.000000 0.000000
													}
												}
											}
										}
									}
									JOINT LeftHandRing1
									{
										OFFSET -0.086752 8.921708 -2.267442
										CHANNELS 3 Zrotation Yrotation Xrotation
										JOINT LeftHandRing2
										{
											OFFSET 0.000000 4.061090 0.000000
											CHANNELS 3 Zrotation Yrotation Xrotation
											JOINT LeftHandRing3
											{
												OFFSET 0.000000 3.654981 0.000000
												CHANNELS 3 Zrotation Yrotation Xrotation
												JOINT LeftHandRing4
												{
													OFFSET 0.000000 2.741236 0.000000
													CHANNELS 3 Zrotation Yrotation Xrotation
													End Site
													{
														OFFSET 0.000000 0.000000 0.000000
													}
												}
											}
										}
									}
									JOINT LeftHandPinky1
									{
										OFFSET 0.173504 7.976997 -4.467199
										CHANNELS 3 Zrotation Yrotation Xrotation
										JOINT LeftHandPinky2
										{
											OFFSET -0.000000 3.350399 -0.000000
											CHANNELS 3 Zrotation Yrotation Xrotation
											JOINT LeftHandPinky3
											{
												OFFSET 0.000000 2.842763 0.000000
												CHANNELS 3 Zrotation Yrotation Xrotation
												JOINT LeftHandPinky4
												{
													OFFSET -0.000000 2.639709 -0.000000
													CHANNELS 3 Zrotation Yrotation Xrotation
													End Site
													{
														OFFSET 0.000000 0.000000 0.000000
													}
												}
											}
										}
									}
									JOINT LeftForeArmEnd
									{
										OFFSET 0.000000 0.000000 0.000000
										CHANNELS 3 Zrotation Yrotation Xrotation
										End Site
										{
											OFFSET 0.000000 0.000000 0.000000
										}
									}
								}
								JOINT LeftArmEnd
								{
									OFFSET 0.000000 0.000000 0.000000
									CHANNELS 3 Zrotation Yrotation Xrotation
									End Site
									{
										OFFSET 0.000000 0.000000 0.000000
									}
								}
							}
						}
					}
				}
			}
		}
	}
	JOINT RightUpLeg
	{
		OFFSET -11.289943 0.000000 0.000000
		CHANNELS 3 Zrotation Yrotation Xrotation
		JOINT RightLeg
		{
			OFFSET 0.000000 -38.200325 0.000000
			CHANNELS 3 Zrotation Yrotation Xrotation
			JOINT RightFoot
			{
				OFFSET -0.000000 -39.900856 -0.000000
				CHANNELS 3 Zrotation Yrotation Xrotation
				JOINT RightToeBase
				{
					OFFSET 0.000000 0.000000 15.261641
					CHANNELS 3 Zrotation Yrotation Xrotation
					JOINT RightToeBaseEnd
					{
						OFFSET 0.000000 0.000000 7.370709
						CHANNELS 3 Zrotation Yrotation Xrotation
						End Site
						{
							OFFSET 0.000000 0.000000 0.000000
						}
					}
				}
				JOINT RightLegEnd
				{
					OFFSET 0.000000 0.000000 0.000000
					CHANNELS 3 Zrotation Yrotation Xrotation
					End Site
					{
						OFFSET 0.000000 0.000000 0.000000
					}
				}
			}
			JOINT RightUpLegEnd
			{
				OFFSET 0.000000 0.000000 0.000000
				CHANNELS 3 Zrotation Yrotation Xrotation
				End Site
				{
					OFFSET 0.000000 0.000000 0.000000
				}
			}
		}
	}
	JOINT LeftUpLeg
	{
		OFFSET 11.315661 -0.000000 0.000000
		CHANNELS 3 Zrotation Yrotation Xrotation
		JOINT LeftLeg
		{
			OFFSET -0.000000 -38.200325 -0.000000
			CHANNELS 3 Zrotation Yrotation Xrotation
			JOINT LeftFoot
			{
				OFFSET 0.000000 -39.900856 -0.000000
				CHANNELS 3 Zrotation Yrotation Xrotation
				JOINT LeftToeBase
				{
					OFFSET -0.000000 -0.000000 15.261641
					CHANNELS 3 Zrotation Yrotation Xrotation
					JOINT LeftToeBaseEnd
					{
						OFFSET 0.000000 -0.000000 7.539996
						CHANNELS 3 Zrotation Yrotation Xrotation
						End Site
						{
							OFFSET 0.000000 0.000000 0.000000
						}
					}
				}
				JOINT LeftLegEnd
				{
					OFFSET 0.000000 0.000000 0.000000
					CHANNELS 3 Zrotation Yrotation Xrotation
					End Site
					{
						OFFSET 0.000000 0.000000 0.000000
					}
				}
			}
			JOINT LeftUpLegEnd
			{
				OFFSET 0.000000 0.000000 0.000000
				CHANNELS 3 Zrotation Yrotation Xrotation
				End Site
				{
					OFFSET 0.000000 0.000000 0.000000
				}
			}
		}
	}
}
MOTION
Frames: 4
Frame Time: 0.016667
0.594571 88.647224 2.927388 -0.243651 -1.813226 -11.562700 1.125676 0.149594 6.976334 -0.791413 0.234116 2.740647 0.029527 0.465387 5.564794 -1.701236 0.681939 4.900453 -0.542381 1.318615 6.031441 0.150928 0.288302 -2.743125 -0.450036 -1.103365 -20.202766 0.000000 0.000000 0.000000 91.370522 -0.450507 9.351975 64.182686 -24.761635 2.724132 -0.808834 17.333748 73.334633 5.861879 6.073618 -4.108701 20.661846 29.830576 61.308056 -9.336157 -13.816013 -22.930979 -6.983356 -9.035814 -15.909516 0.000000 0.000000 0.000000 18.338352 -11.904236 2.537078 13.932806 0.115190 2.146281 13.557380 -0.315826 2.043624 0.000000 0.000000 0.000000 17.358110 -6.362514 0.631571 12.449170 0.348899 0.821305 13.202675 -0.124333 0.698230 0.000000 0.000000 0.000000 17.516233 1.450371 -1.655155 13.316641 -0.764059 -1.223579 13.319556 0.164649 -0.869004 0.000000 0.000000 0.000000 15.146543 10.220286 -4.632177 12.720005 -1.334809 -3.361173 12.660042 0.537913 -2.785015 0.000000 0.000000 0.000000 0.000000 0.000000 0.000000 0.000000 0.000000 0.000000 -88.067383 0.513139 3.147200 -71.413368 7.215623 -9.759179 -0.033801 -18.482941 88.405411 -17.686234 -18.119011 -5.499993 -21.138458 -29.770761 60.729321 9.701476 14.647409 -24.403057 7.308408 9.840628 -17.029440 0.000000 0.000000 0.000000 -25.929440 -4.200622 2.550148 -16.899401 0.135390 -1.646747 -16.699726 -0.336396 -1.572179 0.000000 0.000000 0.000000 -24.863283 0.834521 0.065178 -16.957386 0.336608 -0.743663 -17.014597 -0.123851 -0.625400 0.000000 0.000000 0.000000 -27.585529 8.790951 -3.115735 -18.897520 -0.729758 1.179342 -19.013018 0.188902 0.886237 0.000000 0.000000 0.000000 -29.929646 16.947960 -6.625045 -19.795717 -1.158199 3.709773 -19.500225 0.728117 3.134221 0.000000 0.000000 0.000000 0.000000 0.000000 0.000000 0.000000 0.000000 0.000000 -1.360577 -9.136419 15.565794 -0.087039 -0.764225 5.101804 -2.709636 -6.161144 17.280302 -0.939008 0.916333 -18.561295 0.000000 0.000000 0.000000 0.000000 0.000000 0.000000 0.000000 0.000000 0.000000 -1.642325 -4.650310 9.835906 0.070303 0.286136 12.151547 4.318261 -0.613410 15.287834 0.162352 -0.313162 -20.688477 0.000000 0.000000 0.000000 0.000000 0.000000 0.000000 0.000000 0.000000 0.000000 
0.583158 88.637627 2.934950 -0.248479 -1.679106 -11.617696 1.129324 0.159281 7.011359 -0.793701 0.239376 2.714153 0.030295 0.499004 5.625625 -1.726961 0.702681 4.897590 -0.510547 1.319381 6.019003 0.146524 0.297490 -2.746765 -0.447641 -1.098800 -20.194519 0.000000 0.000000 0.000000 91.420105 -0.460604 9.446862 64.166527 -25.061483 2.944301 -0.809876 17.223637 72.704788 6.082223 6.176530 -4.308231 20.663980 29.828743 61.306011 -9.340611 -13.816397 -22.931604 -6.983718 -9.038350 -15.915919 0.000000 0.000000 0.000000 18.244171 -11.898142 2.580890 13.913004 0.115290 2.143737 13.528207 -0.316532 2.038808 0.000000 0.000000 0.000000 17.262999 -6.348062 0.662790 12.400597 0.348513 0.821184 13.149852 -0.125097 0.696981 0.000000 0.000000 0.000000 17.390278 1.475433 -1.640917 13.213836 -0.762520 -1.225526 13.208484 0.165220 -0.869895 0.000000 0.000000 0.000000 15.018436 10.232604 -4.646480 12.591477 -1.332762 -3.367707 12.530770 0.541582 -2.794383 0.000000 0.000000 0.000000 0.000000 0.000000 0.000000 0.000000 0.000000 0.000000 -88.130455 0.513855 3.172056 -71.415779 7.295362 -9.637056 -0.014236 -18.461857 88.336411 -18.080956 -18.257647 -5.561139 -21.203033 -29.755499 60.666531 9.754883 14.787275 -24.603846 7.357092 9.931777 -17.163406 0.000000 0.000000 0.000000 -26.421118 -4.138926 2.554732 -17.257545 0.131533 -1.658560 -17.041672 -0.339872 -1.581720 0.000000 0.000000 0.000000 -25.323364 0.901057 0.079278 -17.280481 0.335151 -0.747052 -17.330359 -0.125268 -0.627627 0.000000 0.000000 0.000000 -27.983910 8.856839 -3.081199 -19.140553 -0.728614 1.178684 -19.260420 0.190700 0.886122 0.000000 0.000000 0.000000 -30.269156 16.981455 -6.578268 -19.951603 -1.160375 3.703164 -19.670052 0.729480 3.129683 0.000000 0.000000 0.000000 0.000000 0.000000 0.000000 0.000000 0.000000 0.000000 -1.347021 -9.198926 15.675744 -0.086465 -0.767133 5.019879 -2.708404 -6.252618 17.283052 -0.939994 0.918463 -18.546854 0.000000 0.000000 0.000000 0.000000 0.000000 0.000000 0.000000 0.000000 0.000000 -1.638420 -4.715526 9.881180 0.071838 0.293871 12.113976 4.324116 -0.649830 15.296481 0.163065 -0.315236 -20.661451 0.000000 0.000000 0.000000 0.000000 0.000000 0.000000 0.000000 0.000000 0.000000 
0.572000 88.627510 2.945879 -0.247031 -1.539203 -11.676702 1.128816 0.169343 7.046276 -0.799412 0.245922 2.689239 0.031886 0.520813 5.684062 -1.753667 0.718627 4.897594 -0.480837 1.317586 6.003387 0.138753 0.302823 -2.750524 -0.444074 -1.094371 -20.177782 0.000000 0.000000 0.000000 91.462799 -0.469599 9.551054 64.192924 -25.326836 3.142017 -0.807249 17.126720 72.031883 6.200162 6.243834 -4.481480 20.656786 29.828959 61.311840 -9.338305 -13.797022 -22.906517 -6.977756 -9.028789 -15.903715 0.000000 0.000000 0.000000 18.078411 -11.876485 2.637197 13.836706 0.114965 2.140036 13.447335 -0.317260 2.033032 0.000000 0.000000 0.000000 17.100536 -6.321992 0.703371 12.305850 0.347871 0.820429 13.049987 -0.125922 0.695146 0.000000 0.000000 0.000000 17.203697 1.508777 -1.611348 13.075026 -0.760869 -1.226579 13.060363 0.165838 -0.870103 0.000000 0.000000 0.000000 14.834832 10.251774 -4.643789 12.434462 -1.329468 -3.371951 12.370568 0.545607 -2.800985 0.000000 0.000000 0.000000 0.000000 0.000000 0.000000 0.000000 0.000000 0.000000 -88.186272 0.509883 3.213093 -71.425827 7.443071 -9.545850 0.005787 -18.418934 88.265358 -18.281237 -18.237137 -5.749990 -21.265263 -29.740377 60.603222 9.808492 14.927127 -24.803762 7.405869 10.021641 -17.297010 0.000000 0.000000 0.000000 -26.885162 -4.078697 2.551780 -17.591921 0.128217 -1.670770 -17.363424 -0.342791 -1.590909 0.000000 0.000000 0.000000 -25.756397 0.964639 0.088355 -17.577948 0.333902 -0.750574 -17.621849 -0.126523 -0.630011 0.000000 0.000000 0.000000 -28.343405 8.915855 -3.054500 -19.352339 -0.727902 1.177356 -19.475851 0.192030 0.885417 0.000000 0.000000 0.000000 -30.556198 17.007227 -6.540641 -20.072172 -1.163498 3.693181 -19.805477 0.729710 3.122575 0.000000 0.000000 0.000000 0.000000 0.000000 0.000000 0.000000 0.000000 0.000000 -1.346229 -9.264031 15.792154 -0.086089 -0.770940 4.939414 -2.699513 -6.350434 17.281948 -0.943635 0.921147 -18.526577 0.000000 0.000000 0.000000 0.000000 0.000000 0.000000 0.000000 0.000000 0.000000 -1.640143 -4.781035 9.934825 0.073137 0.301647 12.072133 4.331384 -0.696705 15.313982 0.162391 -0.316999 -20.638651 0.000000 0.000000 0.000000 0.000000 0.000000 0.000000 0.000000 0.000000 0.000000 
0.561880 88.616600 2.960137 -0.239698 -1.398795 -11.740465 1.126046 0.179065 7.080690 -0.803316 0.252335 2.669029 0.031902 0.536410 5.735794 -1.780476 0.730686 4.901203 -0.458072 1.314344 5.992532 0.128347 0.303745 -2.751672 -0.439110 -1.089329 -20.159004 0.000000 0.000000 0.000000 91.497322 -0.475317 9.661384 64.247398 -25.567989 3.300912 -0.799366 17.042139 71.338203 6.271590 6.257205 -4.645712 20.640234 29.831953 61.327507 -9.326283 -13.757097 -22.852219 -6.964277 -9.006239 -15.870043 0.000000 0.000000 0.000000 17.848700 -11.842767 2.693709 13.709750 0.114465 2.136270 13.320464 -0.317863 2.027517 0.000000 0.000000 0.000000 16.877886 -6.286428 0.739022 12.171492 0.347118 0.819358 12.910422 -0.126746 0.693139 0.000000 0.000000 0.000000 16.968987 1.549054 -1.586590 12.911105 -0.759407 -1.227438 12.886810 0.166427 -0.870168 0.000000 0.000000 0.000000 14.613954 10.278011 -4.648665 12.263631 -1.325694 -3.376286 12.194503 0.549554 -2.806294 0.000000 0.000000 0.000000 0.000000 0.000000 0.000000 0.000000 0.000000 0.000000 -88.235718 0.502283 3.263883 -71.438812 7.645640 -9.479808 0.023425 -18.355349 88.175629 -18.303457 -18.073603 -6.046314 -21.314701 -29.727829 60.549255 9.853768 15.044551 -24.970442 7.446956 10.096175 -17.408518 0.000000 0.000000 0.000000 -27.258060 -4.029359 2.544729 -17.859324 0.126316 -1.681682 -17.621054 -0.344383 -1.598220 0.000000 0.000000 0.000000 -26.099787 1.016017 0.090333 -17.808130 0.333203 -0.753595 -17.848145 -0.127320 -0.631968 0.000000 0.000000 0.000000 -28.602585 8.958709 -3.042876 -19.495617 -0.728031 1.174722 -19.621508 0.192553 0.883679 0.000000 0.000000 0.000000 -30.733805 17.019865 -6.525697 -20.126129 -1.168631 3.678053 -19.874655 0.727809 3.111432 0.000000 0.000000 0.000000 0.000000 0.000000 0.000000 0.000000 0.000000 0.000000 -1.355824 -9.326324 15.911432 -0.085842 -0.775331 4.867802 -2.683967 -6.449056 17.272436 -0.949959 0.923736 -18.499779 0.000000 0.000000 0.000000 0.000000 0.000000 0.000000 0.000000 0.000000 0.000000 -1.647779 -4.843752 9.994461 0.074142 0.308573 12.037085 4.341764 -0.750075 15.333834 0.159864 -0.318339 -20.619167 0.000000 0.000000 0.000000 0.000000 0.000000 0.000000 0.000000 0.000000 0.000000 
